<svg xmlns="http://www.w3.org/2000/svg" viewBox="0 0 220.13 210.09"><defs><style>.cls-1{fill:#fff;}.cls-2{fill:#6087c6;}.cls-3{fill:#29477f;}</style></defs><title>Ресурс 9</title><g id="Слой_2" data-name="Слой 2"><g id="base-data"><g id="base-data1"><g id="base-data_копия_2" data-name="base-data копия 2"><path class="cls-1" d="M0,157.06c0,10,25.32,18.12,56.55,18.12s56.54-8.11,56.54-18.12V137.7c0,10-25.31,18.12-56.54,18.12S0,147.71,0,137.7Z"/><path class="cls-1" d="M0,126.08c0,10,25.32,18.13,56.55,18.13s56.54-8.12,56.54-18.13V106.72c0,10-25.31,18.13-56.54,18.13S0,116.73,0,106.72Z"/><path class="cls-1" d="M0,100.91C0,110.92,25.32,119,56.55,119s56.54-8.12,56.54-18.13V81.55c0,10-25.31,18.13-56.54,18.13S0,91.56,0,81.55Z"/><ellipse class="cls-2" cx="56.55" cy="81.55" rx="56.55" ry="18.13"/><path class="cls-2" d="M0,110.59c0,10,25.32,18.13,56.55,18.13s56.54-8.12,56.54-18.13V91.23c0,10-25.31,18.13-56.54,18.13S0,101.24,0,91.23Z"/><path class="cls-2" d="M0,139.63c0,10,25.32,18.13,56.55,18.13s56.54-8.12,56.54-18.13V120.27c0,10-25.31,18.13-56.54,18.13S0,130.28,0,120.27Z"/><path class="cls-2" d="M0,168.67c0,10,25.32,18.13,56.55,18.13s56.54-8.12,56.54-18.13V149.31c0,10-25.31,18.13-56.54,18.13S0,159.32,0,149.31Z"/></g></g><g id="base-data2"><g id="base-data_копия2_" data-name="base-data (копия2)"><path class="cls-1" d="M90.06,107.68c0,11.52,29.11,20.85,65,20.85s65-9.33,65-20.85V85.42c0,11.51-29.12,20.85-65,20.85s-65-9.34-65-20.85Z"/><path class="cls-1" d="M90.06,72.06c0,11.51,29.11,20.85,65,20.85s65-9.34,65-20.85V49.79c0,11.52-29.12,20.85-65,20.85s-65-9.33-65-20.85Z"/><path class="cls-1" d="M90.06,174.73c0,11.51,29.11,20.85,65,20.85s65-9.34,65-20.85V152.47c0,11.51-29.12,20.84-65,20.84s-65-9.33-65-20.84Z"/><path class="cls-1" d="M90.06,140.05c0,11.52,29.11,20.85,65,20.85s65-9.33,65-20.85V117.79c0,11.51-29.12,20.84-65,20.84s-65-9.33-65-20.84Z"/><path class="cls-1" d="M90.06,43.11c0,11.52,29.11,20.85,65,20.85s65-9.33,65-20.85V20.85c0,11.51-29.12,20.84-65,20.84s-65-9.33-65-20.84Z"/><ellipse class="cls-3" cx="155.09" cy="20.85" rx="65.04" ry="20.85"/><path class="cls-3" d="M90.06,54.25c0,11.51,29.11,20.84,65,20.84s65-9.33,65-20.84V32c0,11.51-29.12,20.85-65,20.85s-65-9.34-65-20.85Z"/><path class="cls-3" d="M90.06,87.65c0,11.51,29.11,20.84,65,20.84s65-9.33,65-20.84V65.38c0,11.51-29.12,20.85-65,20.85s-65-9.34-65-20.85Z"/><path class="cls-3" d="M90.06,121c0,11.52,29.11,20.85,65,20.85s65-9.33,65-20.85V98.78c0,11.51-29.12,20.85-65,20.85s-65-9.34-65-20.85Z"/><path class="cls-3" d="M90.06,155.72c0,11.52,29.11,20.85,65,20.85s65-9.33,65-20.85V133.46c0,11.51-29.12,20.84-65,20.84s-65-9.33-65-20.84Z"/><path class="cls-3" d="M90.06,189.25c0,11.51,29.11,20.84,65,20.84s65-9.33,65-20.84V167c0,11.51-29.12,20.85-65,20.85s-65-9.34-65-20.85Z"/></g></g></g></g></svg>