<svg xmlns="http://www.w3.org/2000/svg" viewBox="0 0 250 250"><defs><style>.cls-1,.cls-3{fill:#29477f;}.cls-1,.cls-2,.cls-5{stroke:#29477f;stroke-miterlimit:10;stroke-width:8px;}.cls-2,.cls-4{fill:#fff;}.cls-5{fill:none;}</style></defs><title>Безымянный-2</title><g id="Слой_6" data-name="Слой 6"><path class="cls-1" d="M28,250V209c0-14.85,11.73-27,26.07-27H198.93c14.34,0,26.07,12.15,26.07,27v41"/><polyline class="cls-2" points="91 251 81 183 173 183 163 251"/><polygon class="cls-3" points="101.29 246.64 118.56 219 107.21 206.1 118.82 195.12 135.65 195.12 147.08 206.29 136.47 219.39 152.31 246.64 101.29 246.64"/><path class="cls-3" d="M134,199.12l7.66,7.49L131.62,219l13.74,23.62H108.51l15-24-10.77-12.23,7.65-7.24H134m3.26-8h-20l-2.31,2.18-7.66,7.25-5.61,5.3,5.1,5.79,6.84,7.77-11.87,19-7.64,12.24h65.19l-7-12-11-18.86,6.58-8.12,4.59-5.66-5.21-5.09-7.65-7.49-2.34-2.28Z"/><path class="cls-3" d="M157.69,115.75c-40.92,0-101.59-2-102.2-2l-3.3-.11-.52-3.26c-.23-1.5-5.73-37.06,2.39-64.19C60,26.32,93.39,9.54,127,9.54c19.28,0,54.21,5.66,71.74,43.52,2.09,4.13,2.54,18.07,2.54,29.23,0,11.52-.48,26-2.75,29.6C197,114.21,196.06,115.75,157.69,115.75Z"/><path class="cls-3" d="M127,13.54c26.75,0,54.17,11,68.15,41.29,2.84,4.49,2.84,50.43,0,54.92-.94,1.5-16.76,2-37.42,2-41.33,0-102.07-2-102.07-2s-5.68-35.84,2.27-62.42C63.17,29.69,94.57,13.54,127,13.54m0-8v0A110.42,110.42,0,0,0,78.7,16.66C63.56,24.18,53.45,34.26,50.23,45c-8.38,28-2.75,64.43-2.51,66l1,6.52,6.6.22c.61,0,61.34,2,102.33,2,11.26,0,20.17-.15,26.48-.44,10.52-.5,15.07-1.11,17.71-5.29,1-1.59,3.36-5.32,3.36-31.73,0-24-1.94-29.26-3.05-31.22C194.91,35.5,184,23.64,169.67,15.81,157.39,9.09,142.62,5.54,127,5.54Z"/><path class="cls-4" d="M127.44,188.06c-20.75,0-40.15-6.52-49.43-16.59a112.83,112.83,0,0,1-22.64-37.83c-9.73-5.74-17.94-26.34-14.55-37.91l.06-.17a13.14,13.14,0,0,1,12.59-9,15.3,15.3,0,0,1,8.87,3c.85-12.73,6.89-25.61,33.43-30.18a51.15,51.15,0,0,1,8.75-.73c21.82,0,43.55,12.81,56.51,22.16-3-7.48-5.79-14.32-6.48-15.58l-8-14.69,13.78,9.49c.23.15,19.27,15.11,27.57,27.57a15.2,15.2,0,0,1,9.95-3.89c6.64,0,13.73,5,13.73,19.23,0,17.89-10.63,26.27-18.27,29-.63,6.38-3.93,21.28-20.16,39.54-9.4,10.57-26.05,16.64-45.7,16.64Z"/><path class="cls-3" d="M104.52,62.56c32.48,0,65.78,30.69,65.78,30.69s-10.57-27-12.23-30c2.35,1.62,27.21,22.31,29.48,32.63.38-4.33,5.39-8.24,10.3-8.24s9.73,3.91,9.73,15.23c0,22.63-18.14,26-18.14,26s1.13,17-19.28,39.95c-9.54,10.74-26.11,15.3-42.72,15.3-18.9,0-37.84-5.91-46.49-15.3a108.3,108.3,0,0,1-22.3-37.95c-8.7-3.33-17-23.64-14-34a9.12,9.12,0,0,1,8.81-6.33c5.61,0,11.93,4.7,13.49,15.32-1.13-17-5.29-36.62,29.49-42.61a47.43,47.43,0,0,1,8.07-.67M135,37.67l16,29.39c.24.45.73,1.58,1.42,3.21-13.18-8-30.48-15.71-47.94-15.71h0a55,55,0,0,0-9.42.79c-25.33,4.36-33.65,16-36,28a18.77,18.77,0,0,0-5.59-.87A17.1,17.1,0,0,0,37.09,94.27l-.06.17L37,94.6c-2.76,9.43,1.1,20.55,2.88,24.89,1.58,3.85,5.63,12.3,12.21,16.82a117.64,117.64,0,0,0,23,37.87c10,10.86,30.56,17.88,52.37,17.88,21.1,0,38.4-6.39,48.7-18,15.24-17.14,19.65-31.51,20.87-39.41,8.45-3.95,18.57-13.47,18.57-31.81,0-17.15-9.55-23.23-17.73-23.23a18.88,18.88,0,0,0-9,2.36c-9.61-12.5-26-25.19-26.21-25.34L135,37.67Z"/><rect class="cls-2" x="61" y="100" width="53.67" height="29.17"/><rect class="cls-2" x="133.33" y="100" width="53.67" height="29.17"/><line class="cls-5" x1="117" y1="114" x2="133.33" y2="114"/></g></svg>