<svg xmlns="http://www.w3.org/2000/svg" viewBox="0 0 250 250"><defs><style>.cls-1{fill:#29477f;}.cls-2{fill:#fff;}.cls-3{fill:none;stroke:#29477f;stroke-linecap:round;stroke-linejoin:round;stroke-width:11px;}</style></defs><title>Безымянный-2</title><g id="Слой_5" data-name="Слой 5"><rect class="cls-1" x="21" y="113" width="212" height="124"/><path class="cls-1" d="M229,117V233H25V117H229m8-8H17V241H237V109Z"/><polygon class="cls-1" points="28.02 105 126.87 14.43 225.71 105 28.02 105"/><path class="cls-1" d="M126.87,19.85,215.43,101H38.31l88.56-81.15m0-10.85L17.74,109H236L126.87,9Z"/><rect class="cls-2" x="40" y="50" width="176" height="182"/><path class="cls-1" d="M212,54V228H44V54H212m8-8H36V236H220V46Z"/><polygon class="cls-1" points="25 117.28 125 175.01 25 232.75 25 117.28"/><path class="cls-1" d="M29,124.2,117,175,29,225.82V124.2m-8-13.85V239.67L133,175,21,110.35Z"/><polygon class="cls-1" points="129 175.01 229 117.28 229 232.75 129 175.01"/><path class="cls-1" d="M225,124.2V225.82L137,175l88-50.81m8-13.85L121,175l112,64.66V110.35Z"/><polygon class="cls-1" points="127 175 21 236 233 236 127 175"/><line class="cls-3" x1="73.83" y1="77.5" x2="181.83" y2="77.5"/><line class="cls-3" x1="73.83" y1="106.5" x2="181.83" y2="106.5"/><line class="cls-3" x1="73.83" y1="132.5" x2="181.83" y2="132.5"/></g></svg>