<svg xmlns="http://www.w3.org/2000/svg" viewBox="10 10 230 230"><defs><style>.cls-1{fill:#333;}.cls-2{fill:#29477f;}</style></defs><title>Безымянный-2</title><g id="Слой_4" data-name="Слой 4"><path class="cls-1" d="M65,174.8c-6.47,4.75-13.56,8-21.66,8.64-6.4.49-12.27-.86-17.15-5.38-4.67-4.32-7-9.81-7.93-15.95a22.63,22.63,0,0,1,5.23-18.73c3.63-4.28,8.34-7,13.58-8.86s10.74-2.63,16.23-3.36q16.11-2.15,32.31-3.49c2.58-.22,5.16-.37,7.74-.56a31.46,31.46,0,0,0,2.78,13.31,28.46,28.46,0,0,0,4.55,6.58"/><path class="cls-2" d="M147.65,103.74a32.66,32.66,0,0,0-21.56-10C125,79,123.82,64.28,123.88,49.51c0-5.3.07-10.63,1.57-15.76,3.22-11.06,10.59-18.28,21.36-21.89,10.39-3.49,20.55-2.68,29.87,3.36,8,5.21,12.5,12.87,14.07,22.26A31.39,31.39,0,0,1,190.36,50a45.53,45.53,0,0,1-8,16.42,164,164,0,0,1-15.14,17.82C160.78,90.85,154.31,97.39,147.65,103.74Z"/><path class="cls-2" d="M104.22,150c1.72,1,3.23,2.28,5,3.21a35.3,35.3,0,0,0,12.1,3.75c.54,7.2,1.12,14.39,1.62,21.59q.65,9,1.15,18.11a110.71,110.71,0,0,1,.27,13.51c-.6,9.09-3.37,17.34-9.81,24-11.24,11.64-28.37,11.28-39.75,2-8.54-6.95-11.66-16.27-10.64-27.08.74-7.91,4.37-14.59,9-20.87,8.12-11.13,17-21.65,25.89-32.16C100.73,154,102.48,152,104.22,150Z"/><path class="cls-2" d="M147,147.8c1.48-1.94,3.14-3.74,4.44-5.83a38.35,38.35,0,0,0,4.24-10.92c11,.31,22,.07,32.94.27a171.89,171.89,0,0,1,19.25,1c7.64,1,14.65,3.62,20.4,8.94,8.45,7.8,10.91,19.31,6.48,30.3-4.57,11.32-13.15,17.35-25.19,18.39-9.52.83-17.89-2.47-25.44-8-5.37-3.92-10.14-8.55-15.08-13Q157.67,158.76,147,147.8Z"/><path class="cls-2" d="M100.35,104.66A33.93,33.93,0,0,0,94,116.56a46.39,46.39,0,0,0-1.23,6.49c-7.81.72-15.61,1.52-23.43,2.13a227,227,0,0,1-25,1C37,126,30,124.56,23.78,120.37c-8.58-5.81-12.27-14.05-11.45-24.28a30.63,30.63,0,0,1,9.6-20.29,26.82,26.82,0,0,1,17.89-7.35c10.13-.43,19,3.19,26.91,9.17,5.31,4,10.62,8,15.78,12.13C88.54,94.62,94.7,99.34,100.35,104.66Z"/><path class="cls-2" d="M122.55,93.72a32.78,32.78,0,0,0-19.86,8.55c-7.18-6.86-14.31-13.78-21.14-21-5.34-5.62-10.65-11.26-15-17.7C62.36,57.42,60,50.64,60.42,43.11,61,32.53,66.21,25,75.88,20.59c7.83-3.54,15.85-4.24,23.83-.55C108.27,24,113.2,31,115.3,40c1.58,6.82,2.33,13.8,3.27,20.73.56,4.1,1.06,8.21,1.55,12.32Q121.35,83.38,122.55,93.72Z"/><path class="cls-2" d="M156.13,128.1a34.71,34.71,0,0,0-1.94-13.55,38.55,38.55,0,0,0-3.95-7.56c-.17-.28-.32-.58-.48-.87,10.62-9,21.24-17.91,32.5-26.07a49.61,49.61,0,0,1,18.65-8.73c15.06-3.26,28.18,5.43,30.8,20.59a23.42,23.42,0,0,1-3.66,17.69c-4,5.93-9.79,9.62-16.59,11.74A76.08,76.08,0,0,1,200,123.53q-9.51,1.41-19.06,2.36-8.72.85-17.44,1.65C161,127.77,158.59,127.91,156.13,128.1Z"/><path class="cls-2" d="M124.47,157.11a33.36,33.36,0,0,0,13.62-3.22,37.84,37.84,0,0,0,6.08-3.86c.53.05.75.5,1.05.83,9.69,10.47,19.31,21,28.36,32.06,5.09,6.21,8.72,13.12,9.77,21.17.82,6.37-.22,12.31-4.47,17.41-4.07,4.89-9.43,7.53-15.52,8.76a22.63,22.63,0,0,1-19-4.24c-4.47-3.4-7.4-8-9.56-13.09s-3.19-10.59-4.21-16c-2-10.65-3.7-21.35-5.19-32.08C125.08,162.25,124.79,159.68,124.47,157.11Z"/></g></svg>