<svg id="Слой_7" data-name="Слой 7" xmlns="http://www.w3.org/2000/svg" viewBox="0 0 250 250"><defs><style>.cls-1,.cls-2{fill:#29477f;}.cls-1,.cls-3,.cls-5{stroke:#29477f;stroke-miterlimit:10;stroke-width:8px;}.cls-3,.cls-4{fill:#fff;}.cls-5{fill:none;}</style></defs><title>manager</title><path class="cls-1" d="M44,250V201c0-14.85,9.65-27,21.44-27H184.56c11.79,0,21.44,12.15,21.44,27v49"/><path class="cls-2" d="M27.65,207.6S29,169,31.27,102.23C32-25,222-24,219.53,108.72c.28,41.9,1.47,71.28,2.45,99.93Z"/><path class="cls-3" d="M67,174c8,64,106,67,114,0Z"/><path class="cls-4" d="M124.25,181.57c-12,0-23.77-4.48-34.82-13.33C56.27,141.69,62.06,90.73,64.2,77.61c16.59,0,90.55-.12,119.64-.12,1.68,18.27,3.26,55.08-8.38,74.22-7.3,12-27,29.86-51.2,29.86Z"/><path class="cls-2" d="M180.18,81.49c2.43,30.46-.52,55.61-8.14,68.14-6.57,10.8-25.35,27.94-47.79,27.94-11.12,0-22-4.19-32.32-12.45-14.88-11.92-23.36-30.4-25.19-54.94a140,140,0,0,1,.9-28.57c20.66,0,83.22-.11,112.54-.12m7.29-8c-29.4,0-126.61.12-126.61.12S46.48,139,86.93,171.36c12.81,10.26,25.54,14.21,37.32,14.21,25.44,0,46.5-18.42,54.63-31.78,11.88-19.55,11.09-56.41,8.59-80.3Z"/><rect class="cls-3" x="64" y="100" width="51.96" height="28.24"/><rect class="cls-3" x="134.04" y="100" width="51.96" height="28.24"/><line class="cls-5" x1="118.22" y1="113.56" x2="134.04" y2="113.56"/></svg>