<svg xmlns="http://www.w3.org/2000/svg" viewBox="0 0 234.58 213.96"><defs><style>.cls-1{fill:#5578aa;}.cls-2{fill:#375689;}.cls-3,.cls-7{fill:#29477f;}.cls-4,.cls-9{fill:#fff;}.cls-5{fill:#333;}.cls-6{fill:none;}.cls-6,.cls-7{stroke:#000;}.cls-6,.cls-7,.cls-9{stroke-miterlimit:10;}.cls-8{fill:#6087c6;}.cls-9{stroke:#fff;stroke-width:0.5px;}</style></defs><title>Ресурс 5</title><g id="Слой_2" data-name="Слой 2"><g id="server-app"><g id="server_копия_" data-name="server (копия)"><polygon class="cls-1" points="61.56 8.75 129.66 0 234.59 27.45 144.8 53.27 61.56 8.75"/><polygon class="cls-2" points="146.82 213.96 61.56 108.02 61.56 8.75 144.8 53.27 146.82 213.96"/><path class="cls-3" d="M234.58,27.45,218.69,181.91S204.45,210.4,146.82,214c-1.5-22.1-2-160.69-2-160.69Z"/><path class="cls-1" d="M144.91,53.38l89.67-25.93S213.07,67.62,144.91,53.38Z"/><path d="M154,70.29s47.57,8.35,69.94-15c-3.17,31.21-9.85,105.83-9.85,105.83s-15.36,28.38-58.42,18.53C155.31,154.92,154,70.29,154,70.29Z"/><path class="cls-4" d="M159.82,75.86l.67,100s33.94,6.47,50.41-16.67c1.56-30.27,10-97.82,10-97.82S206.45,77.42,159.82,75.86Z"/><path class="cls-5" d="M160.18,176.1l50.76-17S198.79,183.11,160.18,176.1Z"/><line class="cls-6" x1="159.3" y1="97.35" x2="219.52" y2="78.39"/><line class="cls-3" x1="159.3" y1="97.35" x2="219.52" y2="78.39"/><line class="cls-7" x1="159.64" y1="117.8" x2="217.6" y2="97.67"/><line class="cls-7" x1="158.45" y1="139.92" x2="215.09" y2="120.12"/><line class="cls-7" x1="160.14" y1="159.3" x2="213.26" y2="140.69"/></g><g id="app"><rect class="cls-8" x="23.98" y="93.76" width="103.65" height="68.63" rx="1"/><rect class="cls-9" x="30.84" y="100.47" width="90.73" height="54.86"/><rect class="cls-8" x="11.99" y="118.29" width="103.65" height="68.63" rx="1"/><rect class="cls-9" x="18.85" y="125" width="90.73" height="54.86"/><rect class="cls-8" y="142.82" width="103.65" height="68.63" rx="1"/><rect class="cls-9" x="6.86" y="149.53" width="90.73" height="54.86"/></g></g></g></svg>