<svg xmlns="http://www.w3.org/2000/svg" viewBox="0 0 233.96 215.21"><defs><style>.cls-1{fill:#5578aa;}.cls-2{fill:#375689;}.cls-3,.cls-7{fill:#29477f;}.cls-4{fill:#fff;}.cls-5{fill:#333;}.cls-6{fill:none;}.cls-6,.cls-7{stroke:#000;stroke-miterlimit:10;}.cls-8{fill:#6087c6;}</style></defs><title>Ресурс 4</title><g id="Слой_2" data-name="Слой 2"><g id="server-data"><g id="server_копия_2" data-name="server копия 2"><polygon class="cls-1" points="60.93 8.75 129.04 0 233.96 27.45 144.17 53.27 60.93 8.75"/><polygon class="cls-2" points="146.19 213.96 60.93 108.02 60.93 8.75 144.17 53.27 146.19 213.96"/><path class="cls-3" d="M234,27.45l-15.9,154.46S203.82,210.4,146.19,214c-1.5-22.1-2-160.69-2-160.69Z"/><path class="cls-1" d="M144.28,53.38,234,27.45S212.44,67.62,144.28,53.38Z"/><path d="M153.35,70.29s47.57,8.35,69.94-15c-3.17,31.21-9.85,105.83-9.85,105.83S198.09,189.48,155,179.63C154.69,154.92,153.35,70.29,153.35,70.29Z"/><path class="cls-4" d="M159.19,75.86l.67,100s33.94,6.47,50.41-16.67c1.56-30.27,10-97.82,10-97.82S205.82,77.42,159.19,75.86Z"/><path class="cls-5" d="M159.55,176.1l50.76-17S198.17,183.11,159.55,176.1Z"/><line class="cls-6" x1="158.67" y1="97.35" x2="218.89" y2="78.39"/><line class="cls-3" x1="158.67" y1="97.35" x2="218.89" y2="78.39"/><line class="cls-7" x1="159.01" y1="117.8" x2="216.97" y2="97.67"/><line class="cls-7" x1="157.82" y1="139.92" x2="214.46" y2="120.12"/><line class="cls-7" x1="159.51" y1="159.3" x2="212.63" y2="140.69"/></g><g id="base-data"><path class="cls-4" d="M0,185.62c0,10,25.19,18,56.26,18s56.26-8.07,56.26-18V166.36c0,10-25.19,18-56.26,18S0,176.32,0,166.36Z"/><path class="cls-4" d="M0,154.8c0,10,25.19,18,56.26,18s56.26-8.07,56.26-18V135.54c0,10-25.19,18-56.26,18S0,145.5,0,135.54Z"/><path class="cls-4" d="M0,129.76c0,10,25.19,18,56.26,18s56.26-8.07,56.26-18V110.5c0,10-25.19,18-56.26,18S0,120.46,0,110.5Z"/><ellipse class="cls-8" cx="56.26" cy="110.5" rx="56.26" ry="18.03"/><path class="cls-8" d="M0,139.39c0,10,25.19,18,56.26,18s56.26-8.07,56.26-18V120.13c0,10-25.19,18-56.26,18S0,130.09,0,120.13Z"/><path class="cls-8" d="M0,168.28c0,10,25.19,18,56.26,18s56.26-8.08,56.26-18V149c0,10-25.19,18-56.26,18S0,159,0,149Z"/><path class="cls-8" d="M0,197.18c0,10,25.19,18,56.26,18s56.26-8.07,56.26-18V177.91c0,10-25.19,18-56.26,18S0,187.87,0,177.91Z"/></g></g></g></svg>