<svg xmlns="http://www.w3.org/2000/svg" viewBox="0 0 213.19 214.91"><defs><style>.cls-1{fill:#fff;}.cls-2{fill:#6087c6;}.cls-3{fill:#29477f;}.cls-4{fill:none;stroke:#5a7f41;stroke-linecap:round;stroke-linejoin:round;stroke-width:14px;}</style></defs><title>Ресурс 8</title><g id="Слой_2" data-name="Слой 2"><g id="Слой_5" data-name="Слой 5"><g id="base-data"><path class="cls-1" d="M0,185.17c0,10,25.32,18.13,56.55,18.13s56.54-8.12,56.54-18.13V165.81c0,10-25.31,18.13-56.54,18.13S0,175.82,0,165.81Z"/><path class="cls-1" d="M0,154.2c0,10,25.32,18.12,56.55,18.12s56.54-8.11,56.54-18.12V134.84c0,10-25.31,18.12-56.54,18.12S0,144.85,0,134.84Z"/><path class="cls-1" d="M0,129c0,10,25.32,18.13,56.55,18.13S113.09,139,113.09,129V109.67c0,10-25.31,18.13-56.54,18.13S0,119.68,0,109.67Z"/><ellipse class="cls-2" cx="56.55" cy="109.67" rx="56.55" ry="18.13"/><path class="cls-2" d="M0,138.71c0,10,25.32,18.13,56.55,18.13s56.54-8.12,56.54-18.13V119.35c0,10-25.31,18.13-56.54,18.13S0,129.36,0,119.35Z"/><path class="cls-2" d="M0,167.75c0,10,25.32,18.13,56.55,18.13s56.54-8.12,56.54-18.13V148.39c0,10-25.31,18.13-56.54,18.13S0,158.4,0,148.39Z"/><path class="cls-2" d="M0,196.79c0,10,25.32,18.12,56.55,18.12s56.54-8.11,56.54-18.12V177.43c0,10-25.31,18.12-56.54,18.12S0,187.44,0,177.43Z"/></g><g id="Слой_17" data-name="Слой 17"><g id="base-data_копия_" data-name="base-data (копия)"><path class="cls-1" d="M100.09,170c0,10,25.32,18.12,56.55,18.12s56.55-8.11,56.55-18.12V150.68c0,10-25.32,18.12-56.55,18.12s-56.55-8.11-56.55-18.12Z"/><path class="cls-1" d="M100.09,139.06c0,10,25.32,18.13,56.55,18.13s56.55-8.12,56.55-18.13V119.7c0,10-25.32,18.13-56.55,18.13s-56.55-8.12-56.55-18.13Z"/><path class="cls-1" d="M100.09,113.89c0,10,25.32,18.13,56.55,18.13s56.55-8.12,56.55-18.13V94.53c0,10-25.32,18.13-56.55,18.13s-56.55-8.11-56.55-18.13Z"/><ellipse class="cls-3" cx="156.64" cy="94.53" rx="56.55" ry="18.13"/><path class="cls-3" d="M100.09,123.57c0,10,25.32,18.13,56.55,18.13s56.55-8.12,56.55-18.13V104.21c0,10-25.32,18.13-56.55,18.13s-56.55-8.11-56.55-18.13Z"/><path class="cls-3" d="M100.09,152.61c0,10,25.32,18.13,56.55,18.13s56.55-8.12,56.55-18.13V133.25c0,10-25.32,18.13-56.55,18.13s-56.55-8.12-56.55-18.13Z"/><path class="cls-3" d="M100.09,181.65c0,10,25.32,18.13,56.55,18.13s56.55-8.12,56.55-18.13V162.29c0,10-25.32,18.13-56.55,18.13s-56.55-8.12-56.55-18.13Z"/></g></g><g id="Слой_21" data-name="Слой 21"><polyline class="cls-4" points="83.35 30.32 67.77 41.39 56.7 25.81"/><path class="cls-4" d="M68.85,35.64A31.54,31.54,0,1,1,82.05,64.3"/></g></g></g></svg>