<svg xmlns="http://www.w3.org/2000/svg" viewBox="0 0 238.27 213.96"><defs><style>.cls-1{fill:#5578aa;}.cls-2{fill:#375689;}.cls-3,.cls-7{fill:#29477f;}.cls-4,.cls-9{fill:#fff;}.cls-5{fill:#333;}.cls-6{fill:none;}.cls-6,.cls-7{stroke:#000;stroke-miterlimit:10;}.cls-8{fill:#6087c6;}.cls-9{fill-rule:evenodd;}</style></defs><title>Ресурс 3</title><g id="Слой_2" data-name="Слой 2"><g id="web-server"><g id="server"><g id="server-2" data-name="server"><polygon class="cls-1" points="65.24 8.75 133.35 0 238.27 27.45 148.48 53.27 65.24 8.75"/><polygon class="cls-2" points="150.5 213.96 65.24 108.02 65.24 8.75 148.48 53.27 150.5 213.96"/><path class="cls-3" d="M238.27,27.45l-15.9,154.46S208.13,210.4,150.5,214c-1.5-22.1-2-160.69-2-160.69Z"/><path class="cls-1" d="M148.59,53.38l89.68-25.93S216.75,67.62,148.59,53.38Z"/><path d="M157.66,70.29s47.57,8.35,69.94-15c-3.17,31.21-9.85,105.83-9.85,105.83s-15.35,28.38-58.42,18.53C159,154.92,157.66,70.29,157.66,70.29Z"/><path class="cls-4" d="M163.5,75.86l.67,100s33.94,6.47,50.41-16.67c1.56-30.27,10-97.82,10-97.82S210.13,77.42,163.5,75.86Z"/><path class="cls-5" d="M163.86,176.1l50.76-17S202.48,183.11,163.86,176.1Z"/><line class="cls-6" x1="162.98" y1="97.35" x2="223.2" y2="78.39"/><line class="cls-3" x1="162.98" y1="97.35" x2="223.2" y2="78.39"/><line class="cls-7" x1="163.32" y1="117.8" x2="221.28" y2="97.67"/><line class="cls-7" x1="162.13" y1="139.92" x2="218.77" y2="120.12"/><line class="cls-7" x1="163.82" y1="159.3" x2="216.94" y2="140.69"/></g></g><g id="web"><path class="cls-8" d="M66,213.36l-3.37,0-3.29-.19-3.26-.36-3.2-.51-3.18-.66-3.09-.82-3-1-3-1.11-2.9-1.24-2.83-1.36-2.75-1.5L29.41,203l-2.55-1.76-2.52-1.86-2.37-2-2.3-2.08-2.18-2.19-2.08-2.3-2-2.41-1.86-2.48-1.74-2.6-1.59-2.66-1.48-2.74-1.35-2.84-1.19-2.9-1.08-3-.91-3-.77-3.1-.61-3.16-.45-3.2-.3-3.27L0,150.16l.05-3.31.21-3.25.37-3.22.53-3.18.71-3.12L2.71,131l1-3,1.13-2.93,1.28-2.88,1.4-2.8,1.57-2.72L10.72,114l1.81-2.55L14.44,109l2-2.39,2.11-2.27,2.25-2.19,2.35-2,2.44-2,2.54-1.84,2.63-1.72L33.49,93l2.78-1.48,2.87-1.34,3-1.21,3-1.07L48.19,87l3.14-.77,3.18-.63,3.28-.47,3.27-.31,3.37-.15,3.34,0,3.31.2,3.25.33,3.22.52,3.15.67,3.12.81,3,1,3,1.09,2.9,1.25,2.84,1.39,2.75,1.49L101,95l2.58,1.75L106,98.66l2.39,2,2.28,2.1,2.2,2.21,2.08,2.29,2,2.4,1.85,2.5,1.73,2.56,1.61,2.68,1.47,2.75,1.34,2.81,1.21,2.92,1.06,3,.92,3.05.75,3.1.64,3.15.45,3.19.28,3.26.13,3.32,0,3.29-.22,3.27-.39,3.22-.53,3.18-.68,3.11-.84,3.07-1,3L125.54,173l-1.25,2.86-1.43,2.81-1.53,2.72L119.66,184l-1.79,2.56L116,189l-2,2.36-2.14,2.28-2.24,2.17-2.34,2.08-2.44,1.93-2.53,1.86-2.64,1.73L96.9,205l-2.8,1.47-2.87,1.34-2.93,1.2-3,1.06-3.08.94-3.14.77-3.2.63-3.25.46-3.3.31-3.34.14"/><polyline class="cls-9" points="68.45 188.75 68.21 189.44 68.12 192.46 67.5 193.85 65.21 194.67 64.23 196.6 64.28 199.41 66.06 200.76 68.75 202.38 71.7 205.28 73.62 207.53 75.15 207.62 75.3 209.28 74.56 210.94 74.83 212.09 75 212.22 81.61 210.91 87.98 209 94.12 206.43 101.36 202.43 107.78 197.74 107.89 195.84 108.98 193.01 110.98 190.18 112.11 188.51 110.45 187.25 109.56 187.13 107.42 188.07 103.23 189.02 99.8 189.47 96.98 186.21 92.53 186.29 89.23 185.72 85.41 184.12 82.36 184.81 78.19 184.88 76.55 185.67 73.48 184.6 71.46 185.52 69.71 186.94 68.74 187.95 67.16 187.62 64.75 187.41 62.7 185.92 62.31 184.9 62.92 183.11 63.04 181.59 61.63 180.58 59.47 179.99 57.06 180.03 56.78 178.88 57.53 177.46 57.89 175.04 56.47 174.18 54.58 174.84 53.83 176.13 52.45 176.53 50.65 175.93 48.21 173.94 47.94 171.4 48.28 169.1 50.29 166.39 52.95 165.83 54.61 166.05 55.75 166.68 56.89 166.53 58.16 165.86 60.31 166.07 62.35 166.94 63.79 169.07 64.94 170.71 66.21 170.31 65.81 168.28 65.01 166.63 65.38 164.58 66.37 162.91 68.87 161.09 70.38 159.79 70.49 157.37 71.48 154.66 72.72 152.85 73.6 152.59 74.11 151.31 75.34 149.38 76.48 148.84 77.63 149.46 78.5 148.43 80.4 147.38 81.78 146.59 81.25 145.32 79.35 145.62 78.46 145.36 78.33 143.98 77.05 143.62 75.79 144.64 74.41 145.32 74.26 144.69 75.64 143.25 77.91 142.07 79.32 141.92 81.22 141.11 81.83 139.7 81.17 137.92 79.25 135.66 75.78 133.04 73.74 132.82 72.6 132.6 71.44 131.09 68.01 129.63 66.73 130.03 66.75 132.2 66.91 135 67.82 136 67.07 137.15 66.73 139.59 66.37 141.76 64.95 140.5 63.94 138.87 63.78 136.96 62.12 136.22 59.57 135.63 58.65 134.25 58.88 131.31 60.38 128.98 62.77 126.66 64.91 125.08 65.89 123.8 64.75 122.55 63.23 123.09 61.57 122.59 61.29 120.93 61.14 119.41 60.01 119.43 59.66 121.62 58.64 122.52 57.77 121.9 57.72 119.22 57.07 117.47 55.66 116.72 54.5 114.95 52.6 115.11 51.47 116.16 52.88 117.39 53.16 118.92 54.82 120.17 54.59 121.83 49.45 117.84 46.77 115.47 45.35 113.45 45.34 111.66 44.79 109.27 43.63 108.76 41.48 108.8 40.59 109.33 39.45 109.09 38.19 109.23 37.7 110.52 37.19 111.42 34.77 110.96 33.27 111.99 32.41 113.8 31.91 115.34 30.51 115.11 29.1 113.99 29.63 115.64 31.81 116.62 34.22 117.48 36.27 118.59 37.05 120.73 37.21 123.15 36.37 126.73 35.26 130.44 35.04 133.38 35.07 135.05 35.48 136.82 33.97 138.63 32.6 140.96 31.25 144.03 30.65 147.74 30.21 152.97 30.74 154.87 31.8 158.42 32.59 161.21 33.78 164.51 35.31 166.14 36.59 166.62 35.3 165.12 34.64 163.22 34.24 161.05 33.84 159.15 34.84 158.88 35.37 160.4 36.3 164.08 38.26 168 38.8 170.15 38.29 171.57 39.47 173.33 41.76 174.43 45.23 177.57 47.38 178.42 50.71 179.5 54.52 181.09 56.45 182.35 58.24 183.95 59.68 187.12 62.48 188.21 64.28 188.82 66.3 188.54 68.45 188.75"/><polyline class="cls-9" points="61.3 174.35 62.82 173.68 65.24 174.27 68.04 175.12 70.19 175.33 72.11 176.21 71.61 177.22 69.33 177.53 67.42 176.15 65.11 175.03 61.3 174.35"/><polyline class="cls-9" points="72.75 176.82 72.65 177.84 74.3 178.47 75.83 178.68 78.48 178.26 76.69 177.25 76.82 176.63 75.78 176.25 72.75 176.82"/><polyline class="cls-9" points="82.21 139.56 83.11 140.45 84.78 141.81 86.56 143.31 87.08 144.44 84.28 144.5 82.5 142.5 81.84 141.1 82.21 139.56"/><polyline class="cls-9" points="70.28 129.21 68.63 128.72 66.59 128.37 68.61 126.81 68.7 124.63 67.79 123.26 65.37 122.53 63.71 121.8 62.04 119.65 63.42 118.34 65.34 118.84 67.76 120.08 70.06 121.3 70.97 123.32 71.74 123.94 73.64 124.8 74.82 126.83 73.81 127.98 73.47 129.66 71.95 129.93 70.28 129.21"/><polyline class="cls-9" points="79.53 127.25 81.82 128.74 82.85 129.24 85.13 128.56 87.89 127.61 85.22 126.64 84.32 125.24 84.54 122.82 84.74 118.62 86.25 117.19 86.23 114.91 83.8 112.52 81.23 110.66 78.16 109.68 75.62 108.07 72.69 108 70.42 108.8 69.28 110.23 68.01 110.38 67.89 109.36 66.11 109.38 63.97 110.32 64.36 111.72 63.37 114.16 64.42 115.67 66.44 116.9 67.31 113.83 68.3 112.67 68.97 114.82 70.75 116.57 72.41 117.31 74.99 119.29 77.17 121.3 77.72 125.12 79.25 125.97 79.53 127.25"/><polyline class="cls-9" points="88.15 116.78 88.44 118.93 89.2 120.08 90.6 120.68 92.37 118.62 93.08 116.05 91.55 114.93 89.91 115.47 89.16 116.49 88.15 116.78"/><polyline class="cls-9" points="115.07 106.23 115.98 108.39 115.87 110.54 116.39 112.32 118.19 113.44 118.07 114.85 116.56 115.37 115.55 115.28 114.17 115.93 116.97 117.17 116.61 118.32 114.06 118.35 114.33 119.77 114.98 121.52 115.02 123.57 116.18 125.45 117.09 127.23 118.5 128.49 117.87 129.37 117.63 130.27 117.15 132.21 115.64 133.38 113.21 131.89 113.07 130.48 111.65 129.24 111.64 127.45 112.88 126.15 112.74 124.25 110.43 123.65 109.3 123.67 108.52 122.41 108.75 119.47 107.07 116.31 105.4 115.19 104.86 113.18 104.43 110.38 102.38 107.34 101.84 105.06 100.18 104.46 98.41 103.46 97.37 102.84 96.75 103.5 97.65 104.5 96.15 105.67 97.54 106.02 99.09 107.16 100.76 108.79 102.8 109.9 100.77 110.82 100.16 112.11 98.37 111.75 96.21 110.65 94.51 107.86 93.22 106.87 90.31 105.4 88.13 104.29 86.59 102.14 88.34 101.1 91.51 100.53 91.12 99.13 89.85 98.77 89.48 99.54 87.3 99.59 87.67 98.17 86.28 97.57 85.37 96.31 82.81 94.68 78.97 92.07 78.2 92.48 77.48 93.38 75.83 93.92 74.79 93.43 72.89 93.09 70.36 93.27 69.09 94.05 66.44 94.47 64.03 94.13 62.37 93.52 62.11 92.25 59.55 92.17 58.55 93.09 55.9 93.26 53.48 93.82 53.5 95.2 52.24 95.98 49.58 96.3 48.58 97.08 48.97 98.34 47.83 99.01 44.66 99.44 44.43 100.59 44.32 102.01 43.3 102.64 41.55 104.47 40.29 105.76 38.67 107.08 36.64 107.48 37.14 106.72 38.14 105.17 37.86 104.28 36.23 104.31 35.33 103.04 34.54 101.77 35.79 100.36 37.16 99.19 38.31 99.04 39.32 97.11 39.03 94.96 40.55 94.28 42.68 93.24 42.79 90.82 41.63 89.8 40.49 89.44 46.4 87.32 51.37 85.93 56.19 85 62.23 84.31 67.6 84.17 73.89 84.59 81.71 85.92 89.34 88.22 94.54 90.46 99.91 93.3 104.45 96.27 108.71 99.46 112.45 102.98 114.96 105.63 115.07 106.23"/><polyline class="cls-9" points="100.31 114.02 99.17 114.55 99.68 115.67 100.86 117.44 101.25 118.71 101.78 120.61 103.58 122.11 104.84 122.22 104.33 121.09 102.77 119.71 102.64 118.93 104.18 119.56 105.85 120.41 107.37 120.9 107.36 119.63 107.42 119.5 107.47 119.37 107.5 119.23 107.51 119.1 107.51 118.83 107.48 118.57 107.43 118.32 107.38 118.13 107.34 118.02 107.33 117.96 106.31 117.35 103.12 116.01 101.71 115.38 100.31 114.02"/><polyline class="cls-9" points="119.44 111.22 119.33 112.91 119.86 114.81 119.35 115.84 118.48 115.87 119.25 117.13 120.8 119.12 120.95 121.81 119.56 121.46 118.67 121.6 118.45 124.65 118.61 127.32 118.25 128.6 118.39 130.91 117.64 132.2 117.17 133.85 117.95 136.14 119.25 139.17 119.15 141.35 119.08 145.81 119.64 149.86 120.69 153.16 122.38 156.84 124.57 159.22 127.13 159.82 128.61 157.48 129.62 155.95 131 155.32 131.34 151.21 131.38 147.4 131.21 143.49 130.72 138.89 129.69 133.49 128.4 128.88 126.95 124.79 125.14 120.72 123.29 117.11 121.03 113.49 119.44 111.22"/></g></g></g></svg>