<svg xmlns="http://www.w3.org/2000/svg" viewBox="0 0 250 250"><defs><style>.cls-1{fill:#29477f;}.cls-2{fill:none;stroke:#29477f;stroke-miterlimit:10;stroke-width:8px;}</style></defs><title>Безымянный-2</title><g id="Слой_3" data-name="Слой 3"><path class="cls-1" d="M88.13,88.05a5,5,0,0,1-3.58-1.52L41.88,42.64a5,5,0,0,1,.1-7.07L60.43,17.64a5,5,0,0,1,3.48-1.41,5.06,5.06,0,0,1,3.59,1.51l42.66,43.89a5,5,0,0,1-.1,7.07L91.62,86.63A5,5,0,0,1,88.13,88.05Z"/><path class="cls-1" d="M63.91,20.23a1,1,0,0,1,.72.3l42.66,43.89a1,1,0,0,1,0,1.41L88.83,83.76a1,1,0,0,1-.7.29,1,1,0,0,1-.71-.31L44.75,39.85a1,1,0,0,1,0-1.41L63.21,20.51a1,1,0,0,1,.7-.28m0-8a9,9,0,0,0-6.27,2.54L39.19,32.7A9,9,0,0,0,39,45.43L81.68,89.32a9,9,0,0,0,12.73.18l18.44-17.93A9,9,0,0,0,113,58.84L70.37,15a9.07,9.07,0,0,0-6.46-2.72Z"/><path class="cls-1" d="M216.25,206.27a5,5,0,0,1-3.58-1.52L170,160.86a5,5,0,0,1,.1-7.07l18.45-17.93a5,5,0,0,1,3.48-1.42,5,5,0,0,1,3.59,1.52l42.66,43.89a5,5,0,0,1-.1,7.07l-18.44,17.93A5,5,0,0,1,216.25,206.27Z"/><path class="cls-1" d="M192,138.45a1,1,0,0,1,.72.3l42.66,43.89a1,1,0,0,1,0,1.41L217,202a1,1,0,0,1-.7.29,1,1,0,0,1-.71-.31l-42.67-43.89a1,1,0,0,1,0-1.41l18.44-17.93a1,1,0,0,1,.7-.28m0-8a9,9,0,0,0-6.27,2.54l-18.45,17.93a9,9,0,0,0-.18,12.73l42.67,43.89a9,9,0,0,0,12.73.18L241,189.79a9,9,0,0,0,.18-12.73l-42.67-43.89a9,9,0,0,0-6.45-2.72Z"/><path class="cls-2" d="M39.82,41.1s-46.93,33-19.4,68.22,62.5,63.4,93.92,93.45c32.34,30.93,77,41.51,98.73,4.76-32.17-33.47-43-46.88-43-46.88s-10,21.25-21.23,11.16c-4.56-4.81-48-41-68.24-61.78C71.78,98,86.29,87.22,86.29,87.22Z"/></g></svg>